<?xml version="1.0" encoding="UTF-8"?>
<svg width="36px" height="36px" viewBox="0 0 36 36" version="1.1" xmlns="http://www.w3.org/2000/svg" xmlns:xlink="http://www.w3.org/1999/xlink">
    <title>ic_hybrid-connectivity</title>
    <g id="ic_hybrid-connectivity" stroke="none" stroke-width="1" fill="none" fill-rule="evenodd">
        <g id="generic-24-color" transform="translate(0.000000, 2.000000)" fill="#4285F4" fill-rule="nonzero">
            <path d="M32,0 L32,32 L0,32 L0,0 L32,0 Z M16,7.38461539 C13.1409896,7.38461539 10.7048222,9.19502117 9.77535976,11.7319707 L9.77535976,11.7319707 L9.51839466,11.7324415 C6.30073566,11.7324415 3.6923077,14.3408694 3.6923077,17.5585285 C3.6923077,20.7761874 6.30073566,23.3846154 9.51839466,23.3846154 L9.51839466,23.3846154 L22.4816053,23.3846154 C25.6992643,23.3846154 28.3076923,20.7761874 28.3076923,17.5585285 C28.3076923,14.3408694 25.6992643,11.7324415 22.4816053,11.7324415 L22.4816053,11.7324415 L22.2246403,11.7319707 C21.2951778,9.19502117 18.8590104,7.38461539 16,7.38461539 Z" id="Combined-Shape"></path>
        </g>
    </g>
</svg>