<?xml version="1.0" standalone="no"?>
<!DOCTYPE svg PUBLIC "-//W3C//DTD SVG 20010904//EN"
 "http://www.w3.org/TR/2001/REC-SVG-20010904/DTD/svg10.dtd">
<svg version="1.0" xmlns="http://www.w3.org/2000/svg"
 width="432.000000pt" height="388.000000pt" viewBox="0 0 432.000000 388.000000"
 preserveAspectRatio="xMidYMid meet">

<g transform="translate(0.000000,388.000000) scale(0.100000,-0.100000)"
fill="#000000" stroke="none">
<path d="M0 1940 l0 -1940 2160 0 2160 0 0 1940 0 1940 -2160 0 -2160 0 0
-1940z m2265 1158 c111 -22 233 -77 348 -157 55 -38 168 -158 213 -228 l34
-52 98 5 c293 17 607 -145 777 -401 164 -248 191 -593 67 -858 -116 -248 -307
-413 -577 -499 l-70 -23 -1030 -3 c-1147 -3 -1106 -5 -1275 65 -272 112 -475
354 -536 640 -22 104 -22 266 0 373 20 95 82 236 144 326 51 75 159 179 241
234 148 99 364 159 526 146 l83 -6 55 78 c140 199 374 342 611 372 78 9 214 4
291 -12z"/>
<path d="M2001 2659 c-191 -37 -343 -209 -357 -404 -4 -55 -2 -97 8 -136 l15
-55 -209 -78 c-115 -43 -210 -77 -212 -75 -10 10 -45 170 -52 233 l-7 69 -53
-6 c-79 -8 -193 -67 -259 -133 -137 -136 -167 -325 -81 -499 45 -91 112 -157
205 -203 l75 -37 1015 0 1016 0 65 31 c120 57 203 152 240 272 52 168 -1 362
-128 469 -251 212 -626 107 -722 -204 -11 -36 -20 -80 -20 -99 l0 -34 -226 0
-227 0 6 78 c13 171 83 342 202 487 35 44 85 96 110 115 l46 35 -59 56 c-113
107 -245 147 -391 118z"/>
</g>
</svg>
